HIERARCHY
ROOT Hips
{
  OFFSET 5.72205e-005 65.662 3.42586
  CHANNELS 6 Xposition Yposition Zposition Zrotation Xrotation Yrotation
  JOINT Chest
  {
    OFFSET 0 8.7983 -4.7612
    CHANNELS 3 Zrotation Xrotation Yrotation
    JOINT Chest2
    {
      OFFSET 0 8.0291 0.4195
      CHANNELS 3 Zrotation Xrotation Yrotation
      JOINT Chest3
      {
        OFFSET 0 9.9351 -2.2114
        CHANNELS 3 Zrotation Xrotation Yrotation
        JOINT Neck
        {
          OFFSET 0 22.3885 -0.4656
          CHANNELS 3 Zrotation Xrotation Yrotation
          JOINT Head
          {
            OFFSET -0.0001 12.643 3.4389
            CHANNELS 3 Zrotation Xrotation Yrotation
            End Site
            {
              OFFSET 0.0001 17.6655 0.5274
            }
          }
        }
        JOINT LeftCollar
        {
          OFFSET 2.2603 21.606 7.4023
          CHANNELS 3 Zrotation Xrotation Yrotation
          JOINT LeftShoulder
          {
            OFFSET 13.5163 -1.1332 -5.0146
            CHANNELS 3 Zrotation Xrotation Yrotation
            JOINT LeftElbow
            {
              OFFSET -0.0995 -28.05 -0.2431
              CHANNELS 3 Zrotation Xrotation Yrotation
              JOINT LeftWrist
              {
                OFFSET 0.0679 -23.3996 -0.1402
                CHANNELS 3 Zrotation Xrotation Yrotation
                JOINT LeftFinger1
                {
                  OFFSET 0.7932 -9.069 2.5189
                  CHANNELS 3 Zrotation Xrotation Yrotation
                  JOINT LeftFinger11
                  {
                    OFFSET -0.8272 -3.3923 0.5977
                    CHANNELS 3 Zrotation Xrotation Yrotation
                    JOINT LeftFinger12
                    {
                      OFFSET -0.5649 -2.3158 0.4082
                      CHANNELS 3 Zrotation Xrotation Yrotation
                      End Site
                      {
                        OFFSET -0.4919 -1.6479 0.2673
                      }
                    }
                  }
                }
                JOINT LeftFinger2
                {
                  OFFSET 0.9159 -9.2044 0.2193
                  CHANNELS 3 Zrotation Xrotation Yrotation
                  JOINT LeftFinger21
                  {
                    OFFSET 0.0117 -4.1944 -0.0248
                    CHANNELS 3 Zrotation Xrotation Yrotation
                    JOINT LeftFinger22
                    {
                      OFFSET 0.0071 -2.3249 -0.0142
                      CHANNELS 3 Zrotation Xrotation Yrotation
                      End Site
                      {
                        OFFSET -0.1475 -2.0882 0.0028
                      }
                    }
                  }
                }
                JOINT LeftFinger3
                {
                  OFFSET 0.6113 -8.7231 -2.0637
                  CHANNELS 3 Zrotation Xrotation Yrotation
                  JOINT LeftFinger31
                  {
                    OFFSET -0.1927 -3.8059 -0.2383
                    CHANNELS 3 Zrotation Xrotation Yrotation
                    JOINT LeftFinger32
                    {
                      OFFSET -0.1091 -2.1688 -0.1362
                      CHANNELS 3 Zrotation Xrotation Yrotation
                      End Site
                      {
                        OFFSET -0.2358 -1.9176 -0.0906
                      }
                    }
                  }
                }
                JOINT LeftFinger4
                {
                  OFFSET -0.6151 -8.0947 -3.5641
                  CHANNELS 3 Zrotation Xrotation Yrotation
                  JOINT LeftFinger41
                  {
                    OFFSET -0.4882 -2.341 -0.6462
                    CHANNELS 3 Zrotation Xrotation Yrotation
                    JOINT LeftFinger42
                    {
                      OFFSET -0.3575 -1.7167 -0.4742
                      CHANNELS 3 Zrotation Xrotation Yrotation
                      End Site
                      {
                        OFFSET -0.4187 -1.5237 -0.3496
                      }
                    }
                  }
                }
                JOINT LeftFinger0
                {
                  OFFSET -1.42 -1.8761 1.4223
                  CHANNELS 3 Zrotation Xrotation Yrotation
                  JOINT LeftFinger01
                  {
                    OFFSET -1.1471 -3.4929 2.6334
                    CHANNELS 3 Zrotation Xrotation Yrotation
                    JOINT LeftFinger02
                    {
                      OFFSET -0.823 -2.3 1.6571
                      CHANNELS 3 Zrotation Xrotation Yrotation
                      End Site
                      {
                        OFFSET -0.5822 -1.6914 1.1582
                      }
                    }
                  }
                }
              }
            }
          }
        }
        JOINT RightCollar
        {
          OFFSET -2.2603 21.606 7.4023
          CHANNELS 3 Zrotation Xrotation Yrotation
          JOINT RightShoulder
          {
            OFFSET -13.5187 -1.1334 -5.0155
            CHANNELS 3 Zrotation Xrotation Yrotation
            JOINT RightElbow
            {
              OFFSET 0.0994 -28.0499 -0.2431
              CHANNELS 3 Zrotation Xrotation Yrotation
              JOINT RightWrist
              {
                OFFSET -0.0679 -23.3996 -0.1402
                CHANNELS 3 Zrotation Xrotation Yrotation
                JOINT RightFinger1
                {
                  OFFSET -0.7932 -9.0691 2.5189
                  CHANNELS 3 Zrotation Xrotation Yrotation
                  JOINT RightFinger11
                  {
                    OFFSET 0.8272 -3.3923 0.5977
                    CHANNELS 3 Zrotation Xrotation Yrotation
                    JOINT RightFinger12
                    {
                      OFFSET 0.565 -2.3158 0.4082
                      CHANNELS 3 Zrotation Xrotation Yrotation
                      End Site
                      {
                        OFFSET 0.4919 -1.6479 0.2673
                      }
                    }
                  }
                }
                JOINT RightFinger2
                {
                  OFFSET -0.916 -9.2044 0.2193
                  CHANNELS 3 Zrotation Xrotation Yrotation
                  JOINT RightFinger21
                  {
                    OFFSET -0.0117 -4.1944 -0.0248
                    CHANNELS 3 Zrotation Xrotation Yrotation
                    JOINT RightFinger22
                    {
                      OFFSET -0.0071 -2.3249 -0.0142
                      CHANNELS 3 Zrotation Xrotation Yrotation
                      End Site
                      {
                        OFFSET 0.1475 -2.0882 0.0028
                      }
                    }
                  }
                }
                JOINT RightFinger3
                {
                  OFFSET -0.6113 -8.7231 -2.0637
                  CHANNELS 3 Zrotation Xrotation Yrotation
                  JOINT RightFinger31
                  {
                    OFFSET 0.1927 -3.8059 -0.2383
                    CHANNELS 3 Zrotation Xrotation Yrotation
                    JOINT RightFinger32
                    {
                      OFFSET 0.1091 -2.1688 -0.1362
                      CHANNELS 3 Zrotation Xrotation Yrotation
                      End Site
                      {
                        OFFSET 0.2358 -1.9176 -0.0906
                      }
                    }
                  }
                }
                JOINT RightFinger4
                {
                  OFFSET 0.6151 -8.0947 -3.564
                  CHANNELS 3 Zrotation Xrotation Yrotation
                  JOINT RightFinger41
                  {
                    OFFSET 0.4882 -2.341 -0.6462
                    CHANNELS 3 Zrotation Xrotation Yrotation
                    JOINT RightFinger42
                    {
                      OFFSET 0.3574 -1.7166 -0.4742
                      CHANNELS 3 Zrotation Xrotation Yrotation
                      End Site
                      {
                        OFFSET 0.4187 -1.5237 -0.3496
                      }
                    }
                  }
                }
                JOINT RightFinger0
                {
                  OFFSET 1.4199 -1.8761 1.4221
                  CHANNELS 3 Zrotation Xrotation Yrotation
                  JOINT RightFinger01
                  {
                    OFFSET 1.1472 -3.4929 2.6336
                    CHANNELS 3 Zrotation Xrotation Yrotation
                    JOINT RightFinger02
                    {
                      OFFSET 0.8229 -2.3 1.6571
                      CHANNELS 3 Zrotation Xrotation Yrotation
                      End Site
                      {
                        OFFSET 0.5822 -1.6914 1.1582
                      }
                    }
                  }
                }
              }
            }
          }
        }
      }
    }
  }
  JOINT RightHip
  {
    OFFSET -9.412 3.9771 -0.7758
    CHANNELS 3 Zrotation Xrotation Yrotation
    JOINT RightKnee
    {
      OFFSET -0.7531 -40.938 0
      CHANNELS 3 Zrotation Xrotation Yrotation
      JOINT RightAnkle
      {
        OFFSET 0 -40.1986 0
        CHANNELS 3 Zrotation Xrotation Yrotation
        JOINT RightToe
        {
          OFFSET 0 -4.4182 9.239
          CHANNELS 3 Zrotation Xrotation Yrotation
          End Site
          {
            OFFSET 0 0 6.1981
          }
        }
      }
    }
  }
  JOINT LeftHip
  {
    OFFSET 9.4119 3.9773 -0.7758
    CHANNELS 3 Zrotation Xrotation Yrotation
    JOINT LeftKnee
    {
      OFFSET 0.7532 -40.9383 0
      CHANNELS 3 Zrotation Xrotation Yrotation
      JOINT LeftAnkle
      {
        OFFSET 0 -40.1986 0
        CHANNELS 3 Zrotation Xrotation Yrotation
        JOINT LeftToe
        {
          OFFSET 0 -4.4182 9.239
          CHANNELS 3 Zrotation Xrotation Yrotation
          End Site
          {
            OFFSET 0 0 6.1981
          }
        }
      }
    }
  }
}
MOTION
Frames:	6
Frame Time:	0.0333333
0.0129274 17.6367 8.57501 89.3142 -89.7452 -90.4186 -1.6855 -7.66853 -0.547655 -3.49319 -15.3169 -1.34334 -3.4932 -15.317 -1.34335 -19.2191 17.6963 7.22723 -8.54883 -10.9461 -1.99716 -36.5132 -11.4307 0.0973541 56.0829 4.37883 -12.7013 -158.238 -72.2266 -174.405 41.1187 -3.06084 20.6489 -2.65211e-006 1.02148e-005 4.34572e-006 3.18055e-015 0 -0 3.18055e-015 3.18055e-015 -7.95139e-016 -2.65211e-006 1.02148e-005 4.34572e-006 -0.012797 0.00230685 9.24243e-005 -6.36111e-015 3.18055e-015 7.95139e-016 -2.65211e-006 1.02148e-005 4.34572e-006 -0.0160727 0.00299583 0.000861521 0 0 -3.97569e-015 -2.65211e-006 1.02148e-005 4.34572e-006 -0.0125558 0.00311717 0.00282419 -3.18055e-015 0 -0 -2.65211e-006 1.02148e-005 4.34572e-006 3.18055e-015 0 -0 3.18055e-015 3.18055e-015 -7.95139e-016 16.0403 3.32995 28.1201 -36.1531 -16.6111 -24.1018 40.0804 -77.8357 48.9861 -43.0676 -2.41079 -43.1678 -7.46168e-006 -1.43862e-005 3.72356e-006 8.82781e-032 -3.18055e-015 1.59028e-015 -3.18055e-015 -7.95139e-015 7.95139e-016 -7.46168e-006 -1.43862e-005 3.72356e-006 0.0129325 0.00231933 -8.6944e-005 -6.36111e-015 -1.59028e-015 -0 -7.46168e-006 -1.43862e-005 3.72356e-006 0.0163174 0.00304018 -0.000865269 -1.32417e-031 3.18055e-015 2.38542e-015 -7.46168e-006 -1.43862e-005 3.72356e-006 0.0145932 0.00369415 -0.00325697 3.18055e-015 0 -1.59028e-015 -7.46168e-006 -1.43862e-005 3.72356e-006 8.82781e-032 -3.18055e-015 1.59028e-015 -3.18055e-015 -7.95139e-015 7.95139e-016 -140.437 -49.1261 -146.85 -167.257 38.3525 -137.167 -17.5733 39.0008 -1.89964 -2.65331e-006 4.74792e-006 1.27787e-006 139.899 -49.8408 147.094 166.908 39.1286 137.579 19.3398 32.1583 3.67717 6.36771e-006 -5.40721e-006 -6.86724e-007 
0.0129274 17.6367 8.57501 89.3142 -89.7452 -90.4186 -1.6855 -7.66853 -0.547655 -3.49319 -15.3169 -1.34334 -3.4932 -15.317 -1.34335 -19.1251 17.6243 7.18042 -8.65829 -11.2394 -2.0442 -36.5132 -11.4307 0.0973541 56.1364 4.24518 -12.7054 -158.047 -72.3946 -174.386 40.9112 -2.99189 20.7766 3.18055e-015 -6.36111e-015 -7.95139e-016 6.36111e-015 -3.18055e-015 -0 3.18055e-015 -6.36111e-015 -0 3.18055e-015 -6.36111e-015 -7.95139e-016 -0.0128143 0.00232485 8.7226e-005 -6.36111e-015 -6.36111e-015 3.18055e-015 3.18055e-015 -6.36111e-015 -7.95139e-016 -0.0160556 0.00300314 0.000852274 6.36111e-015 0 7.95139e-016 3.18055e-015 -6.36111e-015 -7.95139e-016 -0.0125787 0.00311298 0.00282153 6.36111e-015 0 -2.38542e-015 3.18055e-015 -6.36111e-015 -7.95139e-016 6.36111e-015 -3.18055e-015 -0 3.18055e-015 -6.36111e-015 -0 16.0403 3.32995 28.1201 -36.3757 -16.6738 -23.9703 38.9671 -77.62 47.8363 -42.9367 -2.39873 -43.1465 -9.54166e-015 -4.77083e-015 -1.59028e-015 -3.18055e-015 -1.59028e-015 -3.18055e-015 3.18055e-015 -1.59028e-015 -0 -9.54166e-015 -4.77083e-015 -1.59028e-015 0.0129393 0.00231457 -9.0567e-005 -3.18055e-015 -3.18055e-015 3.18055e-015 -9.54166e-015 -4.77083e-015 -1.59028e-015 0.0163026 0.00301511 -0.000874347 -8.82781e-032 1.59028e-015 3.18055e-015 -9.54166e-015 -4.77083e-015 -1.59028e-015 0.0145704 0.00365992 -0.00327087 4.25593e-006 1.49793e-005 1.43413e-006 -9.54166e-015 -4.77083e-015 -1.59028e-015 -3.18055e-015 -1.59028e-015 -3.18055e-015 3.18055e-015 -1.59028e-015 -0 -140.437 -49.1261 -146.85 -167.257 38.3525 -137.167 -17.5734 39.0008 -1.89959 -1.87121e-007 6.49753e-007 -3.09891e-006 139.899 -49.8408 147.094 166.908 39.1286 137.579 19.3398 32.1583 3.67717 6.36771e-006 -5.40721e-006 -6.86724e-007 
0.0129274 17.6367 8.57501 89.3142 -89.7452 -90.4186 -1.6855 -7.66853 -0.547655 -3.49319 -15.3169 -1.34334 -3.4932 -15.317 -1.34335 -19.0313 17.5522 7.13374 -8.76803 -11.5325 -2.09183 -36.5132 -11.4307 0.0973541 56.1904 4.10965 -12.7095 -157.854 -72.5642 -174.362 40.7034 -2.92331 20.9046 -3.42536e-006 9.28458e-007 5.98415e-007 1.15433e-006 -1.78591e-006 -4.84421e-006 1.27222e-014 -1.27222e-014 -1.51076e-014 -3.42536e-006 9.28458e-007 5.98415e-007 -0.012819 0.00232757 8.77678e-005 1.32794e-006 -6.27904e-006 1.31558e-006 -3.42536e-006 9.28458e-007 5.98415e-007 -0.016049 0.00299923 0.000862922 -1.32417e-031 3.18055e-015 2.38542e-015 -3.42536e-006 9.28458e-007 5.98415e-007 -0.0125584 0.00310245 0.00281731 -6.36111e-015 6.36111e-015 -4.77083e-015 -3.42536e-006 9.28458e-007 5.98415e-007 1.15433e-006 -1.78591e-006 -4.84421e-006 1.27222e-014 -1.27222e-014 -1.51076e-014 16.0403 3.32995 28.1201 -36.5983 -16.737 -23.8388 37.8915 -77.3994 46.7245 -42.8057 -2.38662 -43.1253 3.18055e-015 -1.11319e-014 7.95139e-016 6.36111e-015 -9.54166e-015 -7.95139e-016 6.36111e-015 -9.54166e-015 7.95139e-016 3.18055e-015 -1.11319e-014 7.95139e-016 0.0129393 0.00231167 -8.74183e-005 1.27222e-014 1.59028e-015 -2.54444e-014 3.18055e-015 -1.11319e-014 7.95139e-016 0.0163545 0.00304133 -0.000866012 -4.41391e-032 1.59028e-015 1.59028e-015 3.18055e-015 -1.11319e-014 7.95139e-016 0.0145766 0.00367801 -0.00325767 6.36111e-015 4.77083e-015 -0 3.18055e-015 -1.11319e-014 7.95139e-016 6.36111e-015 -9.54166e-015 -7.95139e-016 6.36111e-015 -9.54166e-015 7.95139e-016 -140.437 -49.1261 -146.85 -167.257 38.3525 -137.167 -17.5734 39.0008 -1.89959 -1.87121e-007 6.49753e-007 -3.09891e-006 139.899 -49.8408 147.094 166.908 39.1286 137.579 19.3398 32.1583 3.67717 6.36771e-006 -5.40721e-006 -6.86724e-007 
0.0129274 17.6367 8.57501 89.3142 -89.7452 -90.4186 -1.6855 -7.66853 -0.547655 -3.49319 -15.3169 -1.34334 -3.4932 -15.317 -1.34335 -18.9375 17.48 7.08721 -8.87808 -11.8254 -2.14007 -36.5132 -11.4307 0.0973541 56.2434 3.97773 -12.7134 -157.661 -72.7309 -174.34 40.4953 -2.85522 21.0331 3.18055e-015 -3.18055e-015 3.18055e-015 1.27222e-014 0 -1.59028e-015 -3.60706e-006 2.14345e-006 -3.79648e-006 3.18055e-015 -3.18055e-015 3.18055e-015 -0.0128003 0.00232367 8.71548e-005 -6.29277e-006 3.01768e-007 5.34387e-007 3.18055e-015 -3.18055e-015 3.18055e-015 -0.0160327 0.00300138 0.000855616 -2.65725e-006 -9.0106e-007 -2.63447e-006 3.18055e-015 -3.18055e-015 3.18055e-015 -0.0125671 0.00312302 0.00282161 -6.06102e-006 -3.10519e-006 -9.00681e-006 3.18055e-015 -3.18055e-015 3.18055e-015 1.27222e-014 0 -1.59028e-015 -3.60706e-006 2.14345e-006 -3.79648e-006 16.0403 3.32995 28.1201 -36.8208 -16.8005 -23.7072 36.8525 -77.1742 45.6494 -42.6748 -2.37449 -43.1041 4.41391e-031 6.36111e-015 -3.97569e-015 5.29669e-031 6.36111e-015 -4.77083e-015 -4.41391e-032 3.18055e-015 7.95139e-016 4.41391e-031 6.36111e-015 -3.97569e-015 0.0129523 0.00231855 -9.42276e-005 4.41391e-032 1.59028e-015 -1.59028e-015 4.41391e-031 6.36111e-015 -3.97569e-015 0.0163177 0.00301773 -0.000873325 -6.62086e-032 -1.59028e-015 -2.38542e-015 4.41391e-031 6.36111e-015 -3.97569e-015 0.0145615 0.0036631 -0.00326324 -3.18055e-015 -4.77083e-015 3.18055e-015 4.41391e-031 6.36111e-015 -3.97569e-015 5.29669e-031 6.36111e-015 -4.77083e-015 -4.41391e-032 3.18055e-015 7.95139e-016 -140.437 -49.1261 -146.85 -167.257 38.3525 -137.167 -17.5734 39.0008 -1.89959 -1.87121e-007 6.49753e-007 -3.09891e-006 139.899 -49.8408 147.094 166.908 39.1286 137.579 19.3398 32.1583 3.67717 6.36771e-006 -5.40721e-006 -6.86724e-007 
0.0129274 17.6367 8.57501 89.3142 -89.7452 -90.4186 -1.6855 -7.66853 -0.547655 -3.49319 -15.3169 -1.34334 -3.4932 -15.317 -1.34335 -18.8439 17.4078 7.04081 -8.98844 -12.1181 -2.18891 -36.5132 -11.4307 0.0973541 56.2969 3.8439 -12.7172 -157.465 -72.8992 -174.315 40.2868 -2.7874 21.1619 1.32417e-031 -3.18055e-015 2.38542e-015 6.36111e-015 -9.54166e-015 3.97569e-015 8.82781e-032 -6.36111e-015 7.95139e-016 1.32417e-031 -3.18055e-015 2.38542e-015 -0.0128205 0.00231769 8.47597e-005 -3.18055e-015 3.18055e-015 -3.97569e-015 1.32417e-031 -3.18055e-015 2.38542e-015 -0.016035 0.00300244 0.000865463 3.66974e-006 -1.59097e-005 -1.01325e-005 1.32417e-031 -3.18055e-015 2.38542e-015 -0.0125787 0.00312896 0.00282737 -3.18055e-015 3.18055e-015 -3.97569e-015 1.32417e-031 -3.18055e-015 2.38542e-015 6.36111e-015 -9.54166e-015 3.97569e-015 8.82781e-032 -6.36111e-015 7.95139e-016 16.0403 3.32995 28.1201 -37.0438 -16.8648 -23.5758 35.8485 -76.9443 44.6088 -42.5438 -2.36231 -43.0829 2.44818e-006 1.02026e-006 -2.92729e-006 -3.18055e-015 -1.59028e-015 7.95139e-016 -4.50185e-007 -1.11361e-006 1.62674e-006 2.44818e-006 1.02026e-006 -2.92729e-006 0.0129317 0.00230236 -8.24678e-005 2.67383e-006 -1.43471e-008 1.13385e-006 2.44818e-006 1.02026e-006 -2.92729e-006 0.0163274 0.0030196 -0.00087516 -9.00394e-007 -1.57191e-006 3.25343e-006 2.44818e-006 1.02026e-006 -2.92729e-006 0.0145768 0.0036663 -0.00325772 1.99818e-006 4.89324e-007 -1.30044e-006 2.44818e-006 1.02026e-006 -2.92729e-006 -3.18055e-015 -1.59028e-015 7.95139e-016 -4.50185e-007 -1.11361e-006 1.62674e-006 -140.437 -49.1261 -146.85 -167.257 38.3525 -137.167 -17.5734 39.0008 -1.89959 -1.87121e-007 6.49753e-007 -3.09891e-006 139.899 -49.8408 147.094 166.908 39.1286 137.579 19.3398 32.1583 3.67717 6.36771e-006 -5.40721e-006 -6.86724e-007 
0.0129274 17.6367 8.57501 89.3142 -89.7452 -90.4186 -1.6855 -7.66853 -0.547655 -3.49319 -15.3169 -1.34334 -3.4932 -15.317 -1.34335 -18.7503 17.3355 6.99454 -9.09911 -12.4104 -2.23834 -36.5132 -11.4307 0.0973541 56.351 3.70792 -12.7209 -157.264 -73.0694 -174.284 40.0781 -2.72007 21.291 9.54166e-015 -6.36111e-015 -2.38542e-014 9.54166e-015 -6.36111e-015 -2.06736e-014 6.36111e-015 -3.18055e-015 -2.70347e-014 9.54166e-015 -6.36111e-015 -2.38542e-014 -0.0128272 0.00232268 8.49193e-005 -3.18055e-015 0 -7.95139e-016 9.54166e-015 -6.36111e-015 -2.38542e-014 -0.0160464 0.00300277 0.000858927 -6.87596e-006 -9.01385e-006 2.94528e-006 9.54166e-015 -6.36111e-015 -2.38542e-014 -0.0125887 0.00312145 0.00282915 -3.18055e-015 3.18055e-015 2.38542e-015 9.54166e-015 -6.36111e-015 -2.38542e-014 9.54166e-015 -6.36111e-015 -2.06736e-014 6.36111e-015 -3.18055e-015 -2.70347e-014 16.0403 3.32995 28.1201 -37.2665 -16.9295 -23.4444 34.8788 -76.7104 43.603 -42.4128 -2.35004 -43.0617 -1.76556e-031 -3.18055e-015 -3.18055e-015 6.36111e-015 -1.59028e-015 -1.59028e-015 6.36111e-015 1.59028e-015 -1.59028e-015 -1.76556e-031 -3.18055e-015 -3.18055e-015 0.012929 0.00232521 -8.31068e-005 3.18055e-015 0 -3.18055e-015 -1.76556e-031 -3.18055e-015 -3.18055e-015 0.0163264 0.00303472 -0.000877221 0 0 -2.38542e-015 -1.76556e-031 -3.18055e-015 -3.18055e-015 0.0145822 0.00368872 -0.00325574 -9.54166e-015 -3.18055e-015 -3.18055e-015 -1.76556e-031 -3.18055e-015 -3.18055e-015 6.36111e-015 -1.59028e-015 -1.59028e-015 6.36111e-015 1.59028e-015 -1.59028e-015 -140.437 -49.1261 -146.85 -167.257 38.3525 -137.167 -17.5734 39.0008 -1.89959 -1.87121e-007 6.49753e-007 -3.09891e-006 139.899 -49.8408 147.094 166.908 39.1286 137.579 19.3398 32.1583 3.67717 6.36771e-006 -5.40721e-006 -6.86724e-007 
